<svg width="74" height="5" viewBox="0 0 74 5" fill="none" xmlns="http://www.w3.org/2000/svg">
<path d="M1 1.2876C2.8 1.2876 2.8 3.29718 4.6 3.29718C6.4 3.29718 6.4 1.2876 8.2 1.2876C10 1.2876 10 3.29718 11.8 3.29718C13.6 3.29718 13.6 1.2876 15.4 1.2876C17.2 1.2876 17.2 3.29718 19 3.29718C20.8 3.29718 20.8 1.2876 22.6 1.2876C24.4 1.2876 24.4 3.29718 26.2 3.29718C28 3.29718 28 1.2876 29.8 1.2876C31.6 1.2876 31.6 3.29718 33.4 3.29718C35.2 3.29718 35.2 1.2876 37 1.2876C38.8 1.2876 38.8 3.29718 40.6 3.29718C42.4 3.29718 42.4 1.2876 44.2 1.2876C45.625 1.2876 46 3.29718 47.8 3.29718C49.6 3.29718 49.6 1.2876 51.4 1.2876C53.2 1.2876 53.2 3.29718 55 3.29718C56.8 3.29718 56.8 1.2876 58.6 1.2876C60.4 1.2876 60.4 3.29718 62.2 3.29718C64 3.29718 64 1.2876 65.8 1.2876C67.6 1.2876 67.6 3.29718 69.4 3.29718C71.2 3.29718 71.2 1.2876 73 1.2876" stroke="#0560FC" stroke-width="2" stroke-linecap="round"/>
</svg>
