<svg width="14" height="15" viewBox="0 0 14 15" fill="none" xmlns="http://www.w3.org/2000/svg">
    <path
        d="M6.84766 14.0044C7.25439 14.0044 7.59473 13.6807 7.59473 13.2822V7.76221H12.957C13.3555 7.76221 13.6958 7.42188 13.6958 7.01514C13.6958 6.6084 13.3555 6.27637 12.957 6.27637H7.59473V0.748047C7.59473 0.349609 7.25439 0.0258789 6.84766 0.0258789C6.44092 0.0258789 6.10889 0.349609 6.10889 0.748047V6.27637H0.738281C0.339844 6.27637 -0.000488281 6.6084 -0.000488281 7.01514C-0.000488281 7.42188 0.339844 7.76221 0.738281 7.76221H6.10889V13.2822C6.10889 13.6807 6.44092 14.0044 6.84766 14.0044Z"
        fill="#999C9F" />
</svg>