<svg width="9" height="16" viewBox="0 0 9 16" fill="none" xmlns="http://www.w3.org/2000/svg">
    <path
        d="M6.82275 14.9878L0.240234 8.56299C0.0825195 8.40527 -0.000488281 8.21436 -0.000488281 8.00684C-0.000488281 7.79102 0.0908203 7.5835 0.248535 7.45068L6.82275 1.01758C6.96387 0.876465 7.14648 0.793457 7.3623 0.793457C7.79395 0.793457 8.11768 1.12549 8.11768 1.55713C8.11768 1.75635 8.03467 1.95557 7.90186 2.09668L1.85889 8.00684L7.90186 13.917C8.03467 14.0581 8.11768 14.249 8.11768 14.4565C8.11768 14.8882 7.79395 15.2119 7.3623 15.2119C7.14648 15.2119 6.96387 15.1289 6.82275 14.9878Z"
        fill="#999C9F" />
</svg>