<svg width="1280" height="52" viewBox="0 0 1280 52" fill="none" xmlns="http://www.w3.org/2000/svg">
<mask id="path-1-inside-1_1_13321" fill="white">
<path d="M0 12C0 5.37258 5.37258 0 12 0H1268C1274.63 0 1280 5.37258 1280 12V52H0V12Z"/>
</mask>
<path d="M0 12C0 5.37258 5.37258 0 12 0H1268C1274.63 0 1280 5.37258 1280 12V52H0V12Z" fill="#191C1F"/>
<g filter="url(#filter0_i_1_13321)">
<circle cx="26" cy="26" r="6" fill="#EE6A5F"/>
</g>
<circle cx="26" cy="26" r="5.75" stroke="#CE5347" stroke-width="0.5"/>
<g filter="url(#filter1_i_1_13321)">
<circle cx="46" cy="26" r="6" fill="#F5BD4F"/>
</g>
<circle cx="46" cy="26" r="5.75" stroke="#D6A243" stroke-width="0.5"/>
<g filter="url(#filter2_i_1_13321)">
<circle cx="66" cy="26" r="6" fill="#61C454"/>
</g>
<circle cx="66" cy="26" r="5.75" stroke="#58A942" stroke-width="0.5"/>
<g clip-path="url(#clip0_1_13321)">
<path d="M148.823 32.9878L142.24 26.563C142.083 26.4053 142 26.2144 142 26.0068C142 25.791 142.091 25.5835 142.249 25.4507L148.823 19.0176C148.964 18.8765 149.146 18.7935 149.362 18.7935C149.794 18.7935 150.118 19.1255 150.118 19.5571C150.118 19.7563 150.035 19.9556 149.902 20.0967L143.859 26.0068L149.902 31.917C150.035 32.0581 150.118 32.249 150.118 32.4565C150.118 32.8882 149.794 33.2119 149.362 33.2119C149.146 33.2119 148.964 33.1289 148.823 32.9878Z" fill="#999C9F"/>
<path d="M174.755 33.2202C174.971 33.2202 175.153 33.1372 175.294 32.9961L181.877 26.563C182.035 26.4053 182.118 26.2144 182.118 26.0068C182.118 25.791 182.035 25.5918 181.877 25.4507L175.303 19.0259C175.153 18.8765 174.971 18.7935 174.755 18.7935C174.323 18.7935 174 19.1255 174 19.5571C174 19.7563 174.083 19.9556 174.215 20.0967L180.258 26.0068L174.215 31.917C174.083 32.0581 174 32.249 174 32.4565C174 32.8882 174.323 33.2202 174.755 33.2202Z" fill="#3D4043"/>
</g>
<path d="M96.8198 33.6602H111.18C112.923 33.6602 113.787 32.7969 113.787 31.0869V20.9517C113.787 19.2417 112.923 18.3784 111.18 18.3784H96.8198C95.085 18.3784 94.2134 19.2334 94.2134 20.9517V31.0869C94.2134 32.8052 95.085 33.6602 96.8198 33.6602ZM96.8364 32.3237C96.0063 32.3237 95.5498 31.8838 95.5498 31.0205V21.0181C95.5498 20.1548 96.0063 19.7148 96.8364 19.7148H100.539V32.3237H96.8364ZM111.164 19.7148C111.985 19.7148 112.45 20.1548 112.45 21.0181V31.0205C112.45 31.8838 111.985 32.3237 111.164 32.3237H101.842V19.7148H111.164ZM98.9365 22.7944C99.1938 22.7944 99.4097 22.5703 99.4097 22.3296C99.4097 22.0806 99.1938 21.8647 98.9365 21.8647H97.1602C96.9111 21.8647 96.687 22.0806 96.687 22.3296C96.687 22.5703 96.9111 22.7944 97.1602 22.7944H98.9365ZM98.9365 24.9443C99.1938 24.9443 99.4097 24.7202 99.4097 24.4712C99.4097 24.2222 99.1938 24.0146 98.9365 24.0146H97.1602C96.9111 24.0146 96.687 24.2222 96.687 24.4712C96.687 24.7202 96.9111 24.9443 97.1602 24.9443H98.9365ZM98.9365 27.0859C99.1938 27.0859 99.4097 26.8784 99.4097 26.6294C99.4097 26.3804 99.1938 26.1646 98.9365 26.1646H97.1602C96.9111 26.1646 96.687 26.3804 96.687 26.6294C96.687 26.8784 96.9111 27.0859 97.1602 27.0859H98.9365Z" fill="#999C9F"/>
<path d="M356.5 34.6147C356.633 34.6147 356.849 34.5649 357.056 34.4487C361.779 31.8008 363.398 30.6802 363.398 27.6504V21.3003C363.398 20.4287 363.024 20.1548 362.319 19.856C361.339 19.4492 358.177 18.312 357.197 17.9717C356.973 17.897 356.732 17.8472 356.5 17.8472C356.268 17.8472 356.027 17.9136 355.811 17.9717C354.832 18.2539 351.661 19.4575 350.681 19.856C349.984 20.1465 349.602 20.4287 349.602 21.3003V27.6504C349.602 30.6802 351.229 31.7925 355.944 34.4487C356.16 34.5649 356.367 34.6147 356.5 34.6147ZM356.832 19.2583C358.085 19.7563 360.518 20.6362 361.804 21.0762C362.028 21.1592 362.078 21.2754 362.078 21.5576V27.3433C362.078 29.9082 360.85 30.5806 357.015 32.9131C356.774 33.0625 356.641 33.104 356.508 33.1123V19.1836C356.591 19.1836 356.699 19.2085 356.832 19.2583Z" fill="#999C9F"/>
<rect x="382" y="12" width="516" height="28" rx="6" fill="white" fill-opacity="0.1"/>
<g clip-path="url(#clip1_1_13321)">
<path d="M544.625 31.4316H550.203C550.959 31.4316 551.328 31.0566 551.328 30.2363V25.9355C551.328 25.1973 551.023 24.8164 550.396 24.752V23.2754C550.396 21.0664 548.949 20 547.414 20C545.879 20 544.432 21.0664 544.432 23.2754V24.7812C543.857 24.8691 543.5 25.2441 543.5 25.9355V30.2363C543.5 31.0566 543.869 31.4316 544.625 31.4316ZM545.375 23.1523C545.375 21.6816 546.318 20.9023 547.414 20.9023C548.51 20.9023 549.453 21.6816 549.453 23.1523V24.7461L545.375 24.752V23.1523Z" fill="#DBDBDC"/>
<path d="M561.878 28.956H563.306C563.315 29.2827 563.437 29.5393 563.67 29.726C563.903 29.9127 564.225 30.006 564.636 30.006C565.065 30.006 565.397 29.922 565.63 29.754C565.863 29.586 565.98 29.3667 565.98 29.096C565.98 28.8907 565.919 28.7227 565.798 28.592C565.677 28.452 565.448 28.34 565.112 28.256L563.88 27.976C563.273 27.8267 562.816 27.598 562.508 27.29C562.209 26.982 562.06 26.562 562.06 26.03C562.06 25.5913 562.172 25.218 562.396 24.91C562.629 24.5927 562.947 24.35 563.348 24.182C563.749 24.0047 564.207 23.916 564.72 23.916C565.233 23.916 565.681 24.0093 566.064 24.196C566.447 24.3733 566.745 24.6253 566.96 24.952C567.175 25.2787 567.282 25.666 567.282 26.114H565.854C565.845 25.7873 565.737 25.5307 565.532 25.344C565.327 25.1573 565.037 25.064 564.664 25.064C564.3 25.064 564.015 25.148 563.81 25.316C563.605 25.4747 563.502 25.694 563.502 25.974C563.502 26.394 563.815 26.6833 564.44 26.842L565.672 27.122C566.251 27.2527 566.685 27.4673 566.974 27.766C567.263 28.0553 567.408 28.4613 567.408 28.984C567.408 29.4227 567.287 29.81 567.044 30.146C566.811 30.482 566.484 30.7387 566.064 30.916C565.644 31.0933 565.154 31.182 564.594 31.182C563.763 31.182 563.101 30.9767 562.606 30.566C562.121 30.1553 561.878 29.6187 561.878 28.956ZM570.811 31.182C570.083 31.182 569.509 30.986 569.089 30.594C568.678 30.202 568.473 29.6933 568.473 29.068C568.473 28.4333 568.692 27.9293 569.131 27.556C569.579 27.1733 570.209 26.9493 571.021 26.884L573.135 26.716V26.548C573.135 26.1933 573.07 25.9133 572.939 25.708C572.808 25.4933 572.631 25.3393 572.407 25.246C572.183 25.1527 571.922 25.106 571.623 25.106C571.091 25.106 570.68 25.2133 570.391 25.428C570.102 25.6427 569.957 25.946 569.957 26.338H568.669C568.669 25.8433 568.79 25.4187 569.033 25.064C569.285 24.7 569.64 24.42 570.097 24.224C570.554 24.0187 571.086 23.916 571.693 23.916C572.29 23.916 572.804 24.0233 573.233 24.238C573.672 24.4433 574.008 24.756 574.241 25.176C574.484 25.596 574.605 26.1233 574.605 26.758V31H573.303L573.163 29.936C573.004 30.3093 572.71 30.6127 572.281 30.846C571.852 31.07 571.362 31.182 570.811 31.182ZM571.287 30.02C571.856 30.02 572.309 29.852 572.645 29.516C572.981 29.1707 573.149 28.7087 573.149 28.13V27.752L571.553 27.892C570.993 27.9387 570.592 28.06 570.349 28.256C570.116 28.452 569.999 28.6993 569.999 28.998C569.999 29.3433 570.111 29.6 570.335 29.768C570.559 29.936 570.876 30.02 571.287 30.02ZM577.867 31H576.369V24.126H577.741L577.923 25.372L577.741 25.218C577.881 24.8633 578.138 24.56 578.511 24.308C578.894 24.0467 579.361 23.916 579.911 23.916C580.518 23.916 581.017 24.0793 581.409 24.406C581.801 24.7233 582.067 25.148 582.207 25.68H581.941C582.044 25.148 582.305 24.7233 582.725 24.406C583.155 24.0793 583.673 23.916 584.279 23.916C585.091 23.916 585.721 24.1493 586.169 24.616C586.617 25.0733 586.841 25.7033 586.841 26.506V31H585.343V26.884C585.343 26.3707 585.213 25.9787 584.951 25.708C584.699 25.428 584.354 25.288 583.915 25.288C583.617 25.288 583.351 25.3533 583.117 25.484C582.884 25.6147 582.697 25.8107 582.557 26.072C582.427 26.324 582.361 26.6367 582.361 27.01V31H580.863V26.87C580.863 26.3567 580.733 25.9647 580.471 25.694C580.219 25.4233 579.874 25.288 579.435 25.288C579.137 25.288 578.866 25.358 578.623 25.498C578.39 25.6287 578.203 25.82 578.063 26.072C577.933 26.324 577.867 26.6367 577.867 27.01V31ZM588.606 34.136V24.126H589.978L590.09 25.26C590.304 24.8213 590.626 24.49 591.056 24.266C591.494 24.0327 591.98 23.916 592.512 23.916C593.165 23.916 593.73 24.0653 594.206 24.364C594.691 24.6627 595.064 25.0827 595.326 25.624C595.596 26.156 595.732 26.7813 595.732 27.5C595.732 28.2 595.606 28.83 595.354 29.39C595.102 29.9407 594.738 30.3793 594.262 30.706C593.786 31.0233 593.207 31.182 592.526 31.182C591.984 31.182 591.499 31.0793 591.07 30.874C590.65 30.6593 590.328 30.3607 590.104 29.978V34.136H588.606ZM590.118 27.556C590.118 27.9947 590.202 28.3867 590.37 28.732C590.538 29.0773 590.776 29.348 591.084 29.544C591.392 29.7307 591.756 29.824 592.176 29.824C592.605 29.824 592.969 29.726 593.268 29.53C593.566 29.334 593.795 29.068 593.954 28.732C594.122 28.3867 594.206 27.9947 594.206 27.556C594.206 27.1173 594.122 26.73 593.954 26.394C593.795 26.0487 593.566 25.7827 593.268 25.596C592.969 25.4 592.605 25.302 592.176 25.302C591.756 25.302 591.392 25.4 591.084 25.596C590.776 25.7827 590.538 26.044 590.37 26.38C590.202 26.716 590.118 27.108 590.118 27.556ZM598.663 31H597.151V20.64H598.663V31ZM603.552 31.182C602.87 31.182 602.268 31.028 601.746 30.72C601.232 30.412 600.826 29.9873 600.528 29.446C600.238 28.8953 600.094 28.2653 600.094 27.556C600.094 26.8373 600.234 26.2073 600.514 25.666C600.803 25.1247 601.204 24.7 601.718 24.392C602.231 24.0747 602.824 23.916 603.496 23.916C604.168 23.916 604.746 24.0607 605.232 24.35C605.726 24.63 606.109 25.0313 606.38 25.554C606.66 26.0673 606.8 26.674 606.8 27.374V27.878L600.892 27.892L600.92 26.912H605.288C605.288 26.38 605.124 25.96 604.798 25.652C604.48 25.3347 604.046 25.176 603.496 25.176C603.076 25.176 602.716 25.2647 602.418 25.442C602.128 25.6193 601.904 25.8853 601.746 26.24C601.596 26.5853 601.522 27.01 601.522 27.514C601.522 28.298 601.694 28.8953 602.04 29.306C602.394 29.7167 602.908 29.922 603.58 29.922C604.065 29.922 604.466 29.8287 604.784 29.642C605.101 29.4553 605.306 29.18 605.4 28.816H606.814C606.655 29.5533 606.286 30.132 605.708 30.552C605.138 30.972 604.42 31.182 603.552 31.182ZM608.865 31.168C608.566 31.168 608.31 31.0653 608.095 30.86C607.89 30.6547 607.787 30.412 607.787 30.132C607.787 29.8333 607.89 29.5813 608.095 29.376C608.31 29.1707 608.566 29.068 608.865 29.068C609.154 29.068 609.402 29.1707 609.607 29.376C609.822 29.5813 609.929 29.8333 609.929 30.132C609.929 30.412 609.822 30.6547 609.607 30.86C609.402 31.0653 609.154 31.168 608.865 31.168ZM613.264 31H611.766V20.64H613.278V25.092C613.492 24.7373 613.796 24.4527 614.188 24.238C614.58 24.0233 615.037 23.916 615.56 23.916C616.418 23.916 617.062 24.1727 617.492 24.686C617.93 25.1993 618.15 25.8947 618.15 26.772V31H616.652V27.122C616.652 26.702 616.586 26.3567 616.456 26.086C616.325 25.8153 616.143 25.6147 615.91 25.484C615.686 25.3533 615.42 25.288 615.112 25.288C614.72 25.288 614.384 25.3767 614.104 25.554C613.833 25.722 613.623 25.9553 613.474 26.254C613.334 26.5433 613.264 26.8747 613.264 27.248V31ZM622.938 31.182C622.257 31.182 621.655 31.028 621.132 30.72C620.619 30.412 620.213 29.9873 619.914 29.446C619.625 28.8953 619.48 28.2653 619.48 27.556C619.48 26.8373 619.62 26.2073 619.9 25.666C620.19 25.1247 620.591 24.7 621.104 24.392C621.618 24.0747 622.21 23.916 622.882 23.916C623.554 23.916 624.133 24.0607 624.618 24.35C625.113 24.63 625.496 25.0313 625.766 25.554C626.046 26.0673 626.186 26.674 626.186 27.374V27.878L620.278 27.892L620.306 26.912H624.674C624.674 26.38 624.511 25.96 624.184 25.652C623.867 25.3347 623.433 25.176 622.882 25.176C622.462 25.176 622.103 25.2647 621.804 25.442C621.515 25.6193 621.291 25.8853 621.132 26.24C620.983 26.5853 620.908 27.01 620.908 27.514C620.908 28.298 621.081 28.8953 621.426 29.306C621.781 29.7167 622.294 29.922 622.966 29.922C623.452 29.922 623.853 29.8287 624.17 29.642C624.488 29.4553 624.693 29.18 624.786 28.816H626.2C626.042 29.5533 625.673 30.132 625.094 30.552C624.525 30.972 623.806 31.182 622.938 31.182ZM629.138 31H627.626V20.64H629.138V31ZM631.002 34.136V24.126H632.374L632.486 25.26C632.701 24.8213 633.023 24.49 633.452 24.266C633.891 24.0327 634.376 23.916 634.908 23.916C635.561 23.916 636.126 24.0653 636.602 24.364C637.087 24.6627 637.461 25.0827 637.722 25.624C637.993 26.156 638.128 26.7813 638.128 27.5C638.128 28.2 638.002 28.83 637.75 29.39C637.498 29.9407 637.134 30.3793 636.658 30.706C636.182 31.0233 635.603 31.182 634.922 31.182C634.381 31.182 633.895 31.0793 633.466 30.874C633.046 30.6593 632.724 30.3607 632.5 29.978V34.136H631.002ZM632.514 27.556C632.514 27.9947 632.598 28.3867 632.766 28.732C632.934 29.0773 633.172 29.348 633.48 29.544C633.788 29.7307 634.152 29.824 634.572 29.824C635.001 29.824 635.365 29.726 635.664 29.53C635.963 29.334 636.191 29.068 636.35 28.732C636.518 28.3867 636.602 27.9947 636.602 27.556C636.602 27.1173 636.518 26.73 636.35 26.394C636.191 26.0487 635.963 25.7827 635.664 25.596C635.365 25.4 635.001 25.302 634.572 25.302C634.152 25.302 633.788 25.4 633.48 25.596C633.172 25.7827 632.934 26.044 632.766 26.38C632.598 26.716 632.514 27.108 632.514 27.556ZM637.825 34.178L638.091 32.82C638.213 32.8573 638.32 32.8807 638.413 32.89C638.497 32.9087 638.591 32.918 638.693 32.918C639.001 32.918 639.216 32.8293 639.337 32.652C639.468 32.4747 639.533 32.204 639.533 31.84V24.126H641.031V31.994C641.031 32.7033 640.84 33.268 640.457 33.688C640.075 34.108 639.529 34.318 638.819 34.318C638.661 34.318 638.511 34.3087 638.371 34.29C638.222 34.2713 638.04 34.234 637.825 34.178ZM640.289 22.614C640.019 22.614 639.79 22.5207 639.603 22.334C639.417 22.1473 639.323 21.9233 639.323 21.662C639.323 21.4007 639.417 21.1767 639.603 20.99C639.79 20.8033 640.019 20.71 640.289 20.71C640.541 20.71 640.761 20.8033 640.947 20.99C641.134 21.1767 641.227 21.4007 641.227 21.662C641.227 21.9233 641.134 22.1473 640.947 22.334C640.761 22.5207 640.541 22.614 640.289 22.614ZM647.587 24.126H649.099V31H647.713L647.573 30.02C647.377 30.3653 647.069 30.6453 646.649 30.86C646.238 31.0747 645.79 31.182 645.305 31.182C644.512 31.182 643.896 30.93 643.457 30.426C643.018 29.922 642.799 29.25 642.799 28.41V24.112H644.311V27.892C644.311 28.5827 644.446 29.0773 644.717 29.376C644.988 29.6747 645.37 29.824 645.865 29.824C646.434 29.824 646.864 29.6513 647.153 29.306C647.442 28.9607 647.587 28.438 647.587 27.738V24.126ZM650.936 31V24.126H652.434V31H650.936ZM651.678 22.614C651.416 22.614 651.192 22.5207 651.006 22.334C650.819 22.1473 650.726 21.9233 650.726 21.662C650.726 21.4007 650.819 21.1767 651.006 20.99C651.192 20.8033 651.416 20.71 651.678 20.71C651.939 20.71 652.163 20.8033 652.35 20.99C652.536 21.1767 652.63 21.4007 652.63 21.662C652.63 21.9233 652.536 22.1473 652.35 22.334C652.163 22.5207 651.939 22.614 651.678 22.614ZM653.851 27.556C653.851 26.8373 653.996 26.2073 654.285 25.666C654.575 25.1247 654.971 24.7 655.475 24.392C655.989 24.0747 656.586 23.916 657.267 23.916C658.163 23.916 658.905 24.154 659.493 24.63C660.081 25.0967 660.427 25.7313 660.529 26.534H659.003C658.901 26.114 658.7 25.8013 658.401 25.596C658.103 25.3813 657.739 25.274 657.309 25.274C656.927 25.274 656.586 25.3673 656.287 25.554C655.998 25.7407 655.769 26.002 655.601 26.338C655.443 26.674 655.363 27.08 655.363 27.556C655.363 28.0133 655.438 28.4147 655.587 28.76C655.746 29.096 655.965 29.3573 656.245 29.544C656.535 29.7307 656.875 29.824 657.267 29.824C657.715 29.824 658.093 29.7167 658.401 29.502C658.709 29.278 658.915 28.97 659.017 28.578H660.529C660.455 29.0913 660.268 29.544 659.969 29.936C659.671 30.3187 659.288 30.622 658.821 30.846C658.355 31.07 657.837 31.182 657.267 31.182C656.577 31.182 655.975 31.0327 655.461 30.734C654.948 30.426 654.551 30.0013 654.271 29.46C653.991 28.9187 653.851 28.284 653.851 27.556ZM664.897 31.182C664.216 31.182 663.614 31.028 663.091 30.72C662.578 30.412 662.172 29.9873 661.873 29.446C661.584 28.8953 661.439 28.2653 661.439 27.556C661.439 26.8373 661.579 26.2073 661.859 25.666C662.149 25.1247 662.55 24.7 663.063 24.392C663.577 24.0747 664.169 23.916 664.841 23.916C665.513 23.916 666.092 24.0607 666.577 24.35C667.072 24.63 667.455 25.0313 667.725 25.554C668.005 26.0673 668.145 26.674 668.145 27.374V27.878L662.237 27.892L662.265 26.912H666.633C666.633 26.38 666.47 25.96 666.143 25.652C665.826 25.3347 665.392 25.176 664.841 25.176C664.421 25.176 664.062 25.2647 663.763 25.442C663.474 25.6193 663.25 25.8853 663.091 26.24C662.942 26.5853 662.867 27.01 662.867 27.514C662.867 28.298 663.04 28.8953 663.385 29.306C663.74 29.7167 664.253 29.922 664.925 29.922C665.411 29.922 665.812 29.8287 666.129 29.642C666.447 29.4553 666.652 29.18 666.745 28.816H668.159C668.001 29.5533 667.632 30.132 667.053 30.552C666.484 30.972 665.765 31.182 664.897 31.182ZM670.211 31.168C669.912 31.168 669.655 31.0653 669.441 30.86C669.235 30.6547 669.133 30.412 669.133 30.132C669.133 29.8333 669.235 29.5813 669.441 29.376C669.655 29.1707 669.912 29.068 670.211 29.068C670.5 29.068 670.747 29.1707 670.953 29.376C671.167 29.5813 671.275 29.8333 671.275 30.132C671.275 30.412 671.167 30.6547 670.953 30.86C670.747 31.0653 670.5 31.168 670.211 31.168ZM672.254 27.556C672.254 26.8373 672.398 26.2073 672.688 25.666C672.977 25.1247 673.374 24.7 673.878 24.392C674.391 24.0747 674.988 23.916 675.67 23.916C676.566 23.916 677.308 24.154 677.896 24.63C678.484 25.0967 678.829 25.7313 678.932 26.534H677.406C677.303 26.114 677.102 25.8013 676.804 25.596C676.505 25.3813 676.141 25.274 675.712 25.274C675.329 25.274 674.988 25.3673 674.69 25.554C674.4 25.7407 674.172 26.002 674.004 26.338C673.845 26.674 673.766 27.08 673.766 27.556C673.766 28.0133 673.84 28.4147 673.99 28.76C674.148 29.096 674.368 29.3573 674.648 29.544C674.937 29.7307 675.278 29.824 675.67 29.824C676.118 29.824 676.496 29.7167 676.804 29.502C677.112 29.278 677.317 28.97 677.42 28.578H678.932C678.857 29.0913 678.67 29.544 678.372 29.936C678.073 30.3187 677.69 30.622 677.224 30.846C676.757 31.07 676.239 31.182 675.67 31.182C674.979 31.182 674.377 31.0327 673.864 30.734C673.35 30.426 672.954 30.0013 672.674 29.46C672.394 28.9187 672.254 28.284 672.254 27.556ZM679.842 27.556C679.842 26.8373 679.996 26.2073 680.304 25.666C680.621 25.1247 681.055 24.7 681.606 24.392C682.156 24.084 682.782 23.93 683.482 23.93C684.182 23.93 684.802 24.084 685.344 24.392C685.885 24.7 686.314 25.1247 686.632 25.666C686.949 26.2073 687.108 26.8373 687.108 27.556C687.108 28.2653 686.949 28.8907 686.632 29.432C686.314 29.9733 685.885 30.398 685.344 30.706C684.802 31.014 684.182 31.168 683.482 31.168C682.782 31.168 682.156 31.014 681.606 30.706C681.055 30.398 680.621 29.9733 680.304 29.432C679.996 28.8907 679.842 28.2653 679.842 27.556ZM681.354 27.542C681.354 27.99 681.442 28.3867 681.62 28.732C681.806 29.068 682.058 29.334 682.376 29.53C682.693 29.7167 683.062 29.81 683.482 29.81C683.892 29.81 684.256 29.7167 684.574 29.53C684.891 29.334 685.138 29.068 685.316 28.732C685.493 28.3867 685.582 27.99 685.582 27.542C685.582 27.094 685.493 26.702 685.316 26.366C685.138 26.03 684.891 25.7687 684.574 25.582C684.256 25.386 683.892 25.288 683.482 25.288C683.062 25.288 682.693 25.386 682.376 25.582C682.058 25.7687 681.806 26.03 681.62 26.366C681.442 26.702 681.354 27.094 681.354 27.542ZM690.004 31H688.506V24.126H689.878L690.06 25.372L689.878 25.218C690.018 24.8633 690.275 24.56 690.648 24.308C691.031 24.0467 691.497 23.916 692.048 23.916C692.655 23.916 693.154 24.0793 693.546 24.406C693.938 24.7233 694.204 25.148 694.344 25.68H694.078C694.181 25.148 694.442 24.7233 694.862 24.406C695.291 24.0793 695.809 23.916 696.416 23.916C697.228 23.916 697.858 24.1493 698.306 24.616C698.754 25.0733 698.978 25.7033 698.978 26.506V31H697.48V26.884C697.48 26.3707 697.349 25.9787 697.088 25.708C696.836 25.428 696.491 25.288 696.052 25.288C695.753 25.288 695.487 25.3533 695.254 25.484C695.021 25.6147 694.834 25.8107 694.694 26.072C694.563 26.324 694.498 26.6367 694.498 27.01V31H693V26.87C693 26.3567 692.869 25.9647 692.608 25.694C692.356 25.4233 692.011 25.288 691.572 25.288C691.273 25.288 691.003 25.358 690.76 25.498C690.527 25.6287 690.34 25.82 690.2 26.072C690.069 26.324 690.004 26.6367 690.004 27.01V31Z" fill="white"/>
</g>
<path d="M883.781 25.6152C883.928 25.6152 884.039 25.5684 884.121 25.4805L886.535 23.0547C886.641 22.9551 886.682 22.8379 886.682 22.7031C886.682 22.5742 886.629 22.4453 886.535 22.3516L884.121 19.9023C884.039 19.8086 883.922 19.7617 883.781 19.7617C883.518 19.7617 883.318 19.9727 883.318 20.2422C883.318 20.3652 883.365 20.4824 883.447 20.5762L885.012 22.1113C884.678 22.0527 884.338 22.0176 883.998 22.0176C881.127 22.0176 878.818 24.3203 878.818 27.1914C878.818 30.0684 881.127 32.377 883.998 32.377C886.869 32.377 889.172 30.0684 889.172 27.1914C889.172 26.9102 888.973 26.7051 888.686 26.7051C888.41 26.7051 888.229 26.9102 888.229 27.1914C888.229 29.5469 886.348 31.4336 883.998 31.4336C881.648 31.4336 879.762 29.5469 879.762 27.1914C879.762 24.8418 881.648 22.9609 883.998 22.9609C884.443 22.9609 884.854 22.9961 885.205 23.0723L883.453 24.8125C883.365 24.9062 883.318 25.0234 883.318 25.1465C883.318 25.416 883.518 25.6152 883.781 25.6152Z" fill="#DBDBDC"/>
<g clip-path="url(#clip2_1_13321)">
<path d="M1128.47 34.4736C1133.1 34.4736 1136.93 30.6304 1136.93 26.0068C1136.93 21.375 1133.09 17.54 1128.46 17.54C1123.83 17.54 1120 21.375 1120 26.0068C1120 30.6304 1123.84 34.4736 1128.47 34.4736ZM1128.47 33.0625C1124.55 33.0625 1121.42 29.9248 1121.42 26.0068C1121.42 22.0889 1124.54 18.9512 1128.46 18.9512C1132.38 18.9512 1135.51 22.0889 1135.52 26.0068C1135.53 29.9248 1132.38 33.0625 1128.47 33.0625ZM1128.47 21.7817C1128.11 21.7817 1127.84 22.0391 1127.84 22.4043V26.5547L1127.91 28.3062L1127.08 27.3101L1126.09 26.314C1125.98 26.2061 1125.83 26.1313 1125.65 26.1313C1125.31 26.1313 1125.06 26.397 1125.06 26.729C1125.06 26.9033 1125.1 27.0527 1125.21 27.1606L1127.99 29.9248C1128.15 30.0908 1128.29 30.1572 1128.47 30.1572C1128.65 30.1572 1128.8 30.0825 1128.96 29.9248L1131.72 27.1606C1131.83 27.0527 1131.9 26.9033 1131.9 26.729C1131.9 26.397 1131.63 26.1313 1131.29 26.1313C1131.11 26.1313 1130.96 26.1978 1130.85 26.314L1129.87 27.3101L1129.02 28.3145L1129.09 26.5547V22.4043C1129.09 22.0391 1128.83 21.7817 1128.47 21.7817Z" fill="#999C9F"/>
<path d="M1168.37 28.2646C1168.73 28.2646 1169.03 27.9658 1169.03 27.6172V19.0923L1168.98 17.8472L1169.54 18.4365L1170.79 19.7812C1170.91 19.9141 1171.09 19.9805 1171.24 19.9805C1171.59 19.9805 1171.85 19.7314 1171.85 19.3911C1171.85 19.2168 1171.78 19.084 1171.66 18.9595L1168.85 16.2534C1168.69 16.0874 1168.54 16.0293 1168.37 16.0293C1168.21 16.0293 1168.06 16.0874 1167.89 16.2534L1165.08 18.9595C1164.96 19.084 1164.88 19.2168 1164.88 19.3911C1164.88 19.7314 1165.14 19.9805 1165.48 19.9805C1165.65 19.9805 1165.82 19.9141 1165.94 19.7812L1167.2 18.4365L1167.77 17.8472L1167.71 19.0923V27.6172C1167.71 27.9658 1168.01 28.2646 1168.37 28.2646ZM1163.61 34.7642H1173.13C1174.86 34.7642 1175.73 33.9009 1175.73 32.1909V23.9067C1175.73 22.1968 1174.86 21.3335 1173.13 21.3335H1170.81V22.6699H1173.1C1173.92 22.6699 1174.4 23.1182 1174.4 23.9814V32.1162C1174.4 32.9795 1173.92 33.4277 1173.1 33.4277H1163.62C1162.79 33.4277 1162.34 32.9795 1162.34 32.1162V23.9814C1162.34 23.1182 1162.79 22.6699 1163.62 22.6699H1165.92V21.3335H1163.61C1161.87 21.3335 1161 22.1968 1161 23.9067V32.1909C1161 33.9009 1161.87 34.7642 1163.61 34.7642Z" fill="#999C9F"/>
<path d="M1207.85 33.0044C1208.25 33.0044 1208.59 32.6807 1208.59 32.2822V26.7622H1213.96C1214.36 26.7622 1214.7 26.4219 1214.7 26.0151C1214.7 25.6084 1214.36 25.2764 1213.96 25.2764H1208.59V19.748C1208.59 19.3496 1208.25 19.0259 1207.85 19.0259C1207.44 19.0259 1207.11 19.3496 1207.11 19.748V25.2764H1201.74C1201.34 25.2764 1201 25.6084 1201 26.0151C1201 26.4219 1201.34 26.7622 1201.74 26.7622H1207.11V32.2822C1207.11 32.6807 1207.44 33.0044 1207.85 33.0044Z" fill="#999C9F"/>
<path d="M1241.61 30.8711H1243.03V32.1411C1243.03 33.8511 1243.89 34.7144 1245.63 34.7144H1253.97C1255.69 34.7144 1256.56 33.8511 1256.56 32.1411V23.7407C1256.56 22.0308 1255.69 21.1675 1253.97 21.1675H1252.54V19.8975C1252.54 18.1875 1251.67 17.3242 1249.94 17.3242H1241.61C1239.86 17.3242 1239 18.1875 1239 19.8975V28.2979C1239 30.0078 1239.86 30.8711 1241.61 30.8711ZM1241.62 29.5347C1240.79 29.5347 1240.34 29.0864 1240.34 28.2231V19.9722C1240.34 19.1089 1240.79 18.6606 1241.62 18.6606H1249.92C1250.74 18.6606 1251.2 19.1089 1251.2 19.9722V21.1675H1245.63C1243.89 21.1675 1243.03 22.0225 1243.03 23.7407V29.5347H1241.62ZM1245.65 33.3779C1244.83 33.3779 1244.36 32.9297 1244.36 32.0664V23.8154C1244.36 22.9521 1244.83 22.5039 1245.65 22.5039H1253.94C1254.76 22.5039 1255.23 22.9521 1255.23 23.8154V32.0664C1255.23 32.9297 1254.76 33.3779 1253.94 33.3779H1245.65Z" fill="#999C9F"/>
</g>
<path d="M0 0H1280H0ZM1280 53H0V51H1280V53ZM0 52V0V52ZM1280 0V52V0Z" fill="white" fill-opacity="0.08" mask="url(#path-1-inside-1_1_13321)"/>
<defs>
<filter id="filter0_i_1_13321" x="20" y="20" width="12" height="12" filterUnits="userSpaceOnUse" color-interpolation-filters="sRGB">
<feFlood flood-opacity="0" result="BackgroundImageFix"/>
<feBlend mode="normal" in="SourceGraphic" in2="BackgroundImageFix" result="shape"/>
<feColorMatrix in="SourceAlpha" type="matrix" values="0 0 0 0 0 0 0 0 0 0 0 0 0 0 0 0 0 0 127 0" result="hardAlpha"/>
<feOffset/>
<feGaussianBlur stdDeviation="3"/>
<feComposite in2="hardAlpha" operator="arithmetic" k2="-1" k3="1"/>
<feColorMatrix type="matrix" values="0 0 0 0 0.92549 0 0 0 0 0.427451 0 0 0 0 0.384314 0 0 0 1 0"/>
<feBlend mode="normal" in2="shape" result="effect1_innerShadow_1_13321"/>
</filter>
<filter id="filter1_i_1_13321" x="40" y="20" width="12" height="12" filterUnits="userSpaceOnUse" color-interpolation-filters="sRGB">
<feFlood flood-opacity="0" result="BackgroundImageFix"/>
<feBlend mode="normal" in="SourceGraphic" in2="BackgroundImageFix" result="shape"/>
<feColorMatrix in="SourceAlpha" type="matrix" values="0 0 0 0 0 0 0 0 0 0 0 0 0 0 0 0 0 0 127 0" result="hardAlpha"/>
<feOffset/>
<feGaussianBlur stdDeviation="3"/>
<feComposite in2="hardAlpha" operator="arithmetic" k2="-1" k3="1"/>
<feColorMatrix type="matrix" values="0 0 0 0 0.960784 0 0 0 0 0.768627 0 0 0 0 0.317647 0 0 0 1 0"/>
<feBlend mode="normal" in2="shape" result="effect1_innerShadow_1_13321"/>
</filter>
<filter id="filter2_i_1_13321" x="60" y="20" width="12" height="12" filterUnits="userSpaceOnUse" color-interpolation-filters="sRGB">
<feFlood flood-opacity="0" result="BackgroundImageFix"/>
<feBlend mode="normal" in="SourceGraphic" in2="BackgroundImageFix" result="shape"/>
<feColorMatrix in="SourceAlpha" type="matrix" values="0 0 0 0 0 0 0 0 0 0 0 0 0 0 0 0 0 0 127 0" result="hardAlpha"/>
<feOffset/>
<feGaussianBlur stdDeviation="3"/>
<feComposite in2="hardAlpha" operator="arithmetic" k2="-1" k3="1"/>
<feColorMatrix type="matrix" values="0 0 0 0 0.407843 0 0 0 0 0.8 0 0 0 0 0.345098 0 0 0 1 0"/>
<feBlend mode="normal" in2="shape" result="effect1_innerShadow_1_13321"/>
</filter>
<clipPath id="clip0_1_13321">
<rect width="64" height="28" fill="white" transform="translate(130 12)"/>
</clipPath>
<clipPath id="clip1_1_13321">
<rect x="539.5" y="16" width="161" height="20" fill="white"/>
</clipPath>
<clipPath id="clip2_1_13321">
<rect width="152" height="28" fill="white" transform="translate(1112 12)"/>
</clipPath>
</defs>
</svg>
