<svg width="17" height="18" viewBox="0 0 17 18" fill="none" xmlns="http://www.w3.org/2000/svg">
    <path
        d="M8.4668 17.4736C13.0986 17.4736 16.9336 13.6304 16.9336 9.00684C16.9336 4.375 13.0903 0.540039 8.4585 0.540039C3.83496 0.540039 0 4.375 0 9.00684C0 13.6304 3.84326 17.4736 8.4668 17.4736ZM8.4668 16.0625C4.54883 16.0625 1.41943 12.9248 1.41943 9.00684C1.41943 5.08887 4.54053 1.95117 8.4585 1.95117C12.3765 1.95117 15.5142 5.08887 15.5225 9.00684C15.5308 12.9248 12.3848 16.0625 8.4668 16.0625ZM8.4668 4.78174C8.10986 4.78174 7.84424 5.03906 7.84424 5.4043V9.55469L7.91064 11.3062L7.08057 10.3101L6.09277 9.31396C5.97656 9.20605 5.82715 9.13135 5.65283 9.13135C5.3125 9.13135 5.05518 9.39697 5.05518 9.729C5.05518 9.90332 5.10498 10.0527 5.21289 10.1606L7.98535 12.9248C8.15137 13.0908 8.29248 13.1572 8.4668 13.1572C8.64941 13.1572 8.79883 13.0825 8.95654 12.9248L11.7207 10.1606C11.8286 10.0527 11.895 9.90332 11.895 9.729C11.895 9.39697 11.6294 9.13135 11.2891 9.13135C11.1064 9.13135 10.957 9.19775 10.8491 9.31396L9.86963 10.3101L9.02295 11.3145L9.08936 9.55469V5.4043C9.08936 5.03906 8.83203 4.78174 8.4668 4.78174Z"
        fill="#999C9F" />
</svg>