<svg width="17" height="16" viewBox="0 0 17 16" fill="none" xmlns="http://www.w3.org/2000/svg">
    <path
        d="M5.625 13.4316H11.2031C11.959 13.4316 12.3281 13.0566 12.3281 12.2363V7.93555C12.3281 7.19727 12.0234 6.81641 11.3965 6.75195V5.27539C11.3965 3.06641 9.94922 2 8.41406 2C6.87891 2 5.43164 3.06641 5.43164 5.27539V6.78125C4.85742 6.86914 4.5 7.24414 4.5 7.93555V12.2363C4.5 13.0566 4.86914 13.4316 5.625 13.4316ZM6.375 5.15234C6.375 3.68164 7.31836 2.90234 8.41406 2.90234C9.50977 2.90234 10.4531 3.68164 10.4531 5.15234V6.74609L6.375 6.75195V5.15234Z"
        fill="#DBDBDC" />
</svg>