<svg width="12" height="14" viewBox="0 0 12 14" fill="none" xmlns="http://www.w3.org/2000/svg">
    <path
        d="M5.78125 6.61523C5.92773 6.61523 6.03906 6.56836 6.12109 6.48047L8.53516 4.05469C8.64062 3.95508 8.68164 3.83789 8.68164 3.70312C8.68164 3.57422 8.62891 3.44531 8.53516 3.35156L6.12109 0.902344C6.03906 0.808594 5.92188 0.761719 5.78125 0.761719C5.51758 0.761719 5.31836 0.972656 5.31836 1.24219C5.31836 1.36523 5.36523 1.48242 5.44727 1.57617L7.01172 3.11133C6.67773 3.05273 6.33789 3.01758 5.99805 3.01758C3.12695 3.01758 0.818359 5.32031 0.818359 8.19141C0.818359 11.0684 3.12695 13.377 5.99805 13.377C8.86914 13.377 11.1719 11.0684 11.1719 8.19141C11.1719 7.91016 10.9727 7.70508 10.6855 7.70508C10.4102 7.70508 10.2285 7.91016 10.2285 8.19141C10.2285 10.5469 8.34766 12.4336 5.99805 12.4336C3.64844 12.4336 1.76172 10.5469 1.76172 8.19141C1.76172 5.8418 3.64844 3.96094 5.99805 3.96094C6.44336 3.96094 6.85352 3.99609 7.20508 4.07227L5.45312 5.8125C5.36523 5.90625 5.31836 6.02344 5.31836 6.14648C5.31836 6.41602 5.51758 6.61523 5.78125 6.61523Z"
        fill="#DBDBDC" />
</svg>