<svg width="15" height="19" viewBox="0 0 15 19" fill="none" xmlns="http://www.w3.org/2000/svg">
    <path
        d="M7.37109 12.2646C7.72803 12.2646 8.02686 11.9658 8.02686 11.6172V3.09229L7.97705 1.84717L8.5415 2.43652L9.79492 3.78125C9.91113 3.91406 10.0854 3.98047 10.2432 3.98047C10.5918 3.98047 10.8491 3.73145 10.8491 3.39111C10.8491 3.2168 10.7827 3.08398 10.6582 2.95947L7.85254 0.253418C7.68652 0.0874023 7.53711 0.0292969 7.37109 0.0292969C7.20508 0.0292969 7.05566 0.0874023 6.88965 0.253418L4.08398 2.95947C3.95947 3.08398 3.88477 3.2168 3.88477 3.39111C3.88477 3.73145 4.14209 3.98047 4.48242 3.98047C4.64844 3.98047 4.82275 3.91406 4.93896 3.78125L6.20068 2.43652L6.76514 1.84717L6.70703 3.09229V11.6172C6.70703 11.9658 7.01416 12.2646 7.37109 12.2646ZM2.60645 18.7642H12.1274C13.8623 18.7642 14.7339 17.9009 14.7339 16.1909V7.90674C14.7339 6.19678 13.8623 5.3335 12.1274 5.3335H9.81152V6.66992H12.1025C12.9243 6.66992 13.3975 7.11816 13.3975 7.98145V16.1162C13.3975 16.9795 12.9243 17.4277 12.1025 17.4277H2.62305C1.79297 17.4277 1.33643 16.9795 1.33643 16.1162V7.98145C1.33643 7.11816 1.79297 6.66992 2.62305 6.66992H4.92236V5.3335H2.60645C0.871582 5.3335 0 6.19678 0 7.90674V16.1909C0 17.9009 0.871582 18.7642 2.60645 18.7642Z"
        fill="#999C9F" />
</svg>