<svg width="34" height="28" viewBox="0 0 34 28" fill="none" xmlns="http://www.w3.org/2000/svg">
    <path
        d="M9.81982 21.6602H24.1802C25.9233 21.6602 26.7866 20.7969 26.7866 19.0869V8.95166C26.7866 7.2417 25.9233 6.37842 24.1802 6.37842H9.81982C8.08496 6.37842 7.21338 7.2334 7.21338 8.95166V19.0869C7.21338 20.8052 8.08496 21.6602 9.81982 21.6602ZM9.83643 20.3237C9.00635 20.3237 8.5498 19.8838 8.5498 19.0205V9.01807C8.5498 8.15479 9.00635 7.71484 9.83643 7.71484H13.5386V20.3237H9.83643ZM24.1636 7.71484C24.9854 7.71484 25.4502 8.15479 25.4502 9.01807V19.0205C25.4502 19.8838 24.9854 20.3237 24.1636 20.3237H14.8418V7.71484H24.1636ZM11.9365 10.7944C12.1938 10.7944 12.4097 10.5703 12.4097 10.3296C12.4097 10.0806 12.1938 9.86475 11.9365 9.86475H10.1602C9.91113 9.86475 9.68701 10.0806 9.68701 10.3296C9.68701 10.5703 9.91113 10.7944 10.1602 10.7944H11.9365ZM11.9365 12.9443C12.1938 12.9443 12.4097 12.7202 12.4097 12.4712C12.4097 12.2222 12.1938 12.0146 11.9365 12.0146H10.1602C9.91113 12.0146 9.68701 12.2222 9.68701 12.4712C9.68701 12.7202 9.91113 12.9443 10.1602 12.9443H11.9365ZM11.9365 15.0859C12.1938 15.0859 12.4097 14.8784 12.4097 14.6294C12.4097 14.3804 12.1938 14.1646 11.9365 14.1646H10.1602C9.91113 14.1646 9.68701 14.3804 9.68701 14.6294C9.68701 14.8784 9.91113 15.0859 10.1602 15.0859H11.9365Z"
        fill="#999C9F" />
</svg>