<svg width="18" height="18" viewBox="0 0 18 18" fill="none" xmlns="http://www.w3.org/2000/svg">
    <path
        d="M2.60645 13.8711H4.02588V15.1411C4.02588 16.8511 4.88916 17.7144 6.63232 17.7144H14.9663C16.6929 17.7144 17.5645 16.8511 17.5645 15.1411V6.74072C17.5645 5.03076 16.6929 4.16748 14.9663 4.16748H13.5386V2.89746C13.5386 1.1875 12.667 0.324219 10.9404 0.324219H2.60645C0.863281 0.324219 0 1.1875 0 2.89746V11.2979C0 13.0078 0.863281 13.8711 2.60645 13.8711ZM2.62305 12.5347C1.79297 12.5347 1.33643 12.0864 1.33643 11.2231V2.97217C1.33643 2.10889 1.79297 1.66064 2.62305 1.66064H10.9155C11.7373 1.66064 12.2021 2.10889 12.2021 2.97217V4.16748H6.63232C4.88916 4.16748 4.02588 5.02246 4.02588 6.74072V12.5347H2.62305ZM6.64893 16.3779C5.82715 16.3779 5.3623 15.9297 5.3623 15.0664V6.81543C5.3623 5.95215 5.82715 5.50391 6.64893 5.50391H14.9414C15.7632 5.50391 16.228 5.95215 16.228 6.81543V15.0664C16.228 15.9297 15.7632 16.3779 14.9414 16.3779H6.64893Z"
        fill="#999C9F" />
</svg>