<svg xmlns="http://www.w3.org/2000/svg" width="32" height="32" fill="none" viewBox="0 0 32 32"><path fill="#5a9ed2" d="M16.0591 11.3184C16.0591 11.3184 19.2887 15.5554 19.2887 17.3924C19.2887 19.1998 17.8072 20.6813 15.9998 20.6813C14.1924 20.6813 12.7109 19.1998 12.7109 17.3924C12.7109 15.5554 16.0591 11.3184 16.0591 11.3184Z"/><path fill="#5a9ed2" d="M15.9998 0.799805C7.61462 0.799805 0.799805 7.61462 0.799805 15.9998C0.799805 24.385 7.61462 31.1998 15.9998 31.1998C24.385 31.1998 31.1998 24.385 31.1998 15.9998C31.1998 7.61462 24.385 0.799805 15.9998 0.799805ZM21.1257 3.58499C24.4146 4.94795 27.0517 7.58499 28.4146 10.8739L25.3331 12.148C24.2961 9.65907 22.3406 7.67388 19.8517 6.66647L21.1257 3.58499ZM10.8739 3.58499L12.148 6.66647C9.65907 7.70351 7.67388 9.65907 6.66647 12.148L3.58499 10.8739C4.94795 7.55536 7.55536 4.94795 10.8739 3.58499ZM10.8739 28.4146C7.58499 27.0517 4.94795 24.4146 3.58499 21.1257L6.66647 19.8517C7.70351 22.3406 9.65907 24.3257 12.148 25.3331L10.8739 28.4146ZM7.67388 15.9998C7.67388 11.4072 11.4072 7.67388 15.9998 7.67388C20.5924 7.67388 24.3257 11.4072 24.3257 15.9998C24.3257 20.5924 20.5924 24.3257 15.9998 24.3257C11.4072 24.3257 7.67388 20.5924 7.67388 15.9998ZM21.1257 28.4146L19.8517 25.3331C22.3406 24.2961 24.3257 22.3406 25.3331 19.8517L28.4146 21.1257C27.0517 24.4443 24.4443 27.0517 21.1257 28.4146Z"/></svg>