<svg width="56" height="24" viewBox="0 0 56 24" fill="none" xmlns="http://www.w3.org/2000/svg">
<rect width="56" height="24" rx="12" fill="#141414"/>
<mask id="mask0_1_12955" style="mask-type:alpha" maskUnits="userSpaceOnUse" x="16" y="0" width="24" height="24">
<rect x="16" width="24" height="24" fill="#D9D9D9"/>
</mask>
<g mask="url(#mask0_1_12955)">
<path d="M22 14C21.45 14 20.9793 13.804 20.588 13.412C20.196 13.0207 20 12.55 20 12C20 11.45 20.196 10.979 20.588 10.587C20.9793 10.1957 21.45 10 22 10C22.55 10 23.0207 10.1957 23.412 10.587C23.804 10.979 24 11.45 24 12C24 12.55 23.804 13.0207 23.412 13.412C23.0207 13.804 22.55 14 22 14ZM28 14C27.45 14 26.9793 13.804 26.588 13.412C26.196 13.0207 26 12.55 26 12C26 11.45 26.196 10.979 26.588 10.587C26.9793 10.1957 27.45 10 28 10C28.55 10 29.021 10.1957 29.413 10.587C29.8043 10.979 30 11.45 30 12C30 12.55 29.8043 13.0207 29.413 13.412C29.021 13.804 28.55 14 28 14ZM34 14C33.45 14 32.979 13.804 32.587 13.412C32.1957 13.0207 32 12.55 32 12C32 11.45 32.1957 10.979 32.587 10.587C32.979 10.1957 33.45 10 34 10C34.55 10 35.021 10.1957 35.413 10.587C35.8043 10.979 36 11.45 36 12C36 12.55 35.8043 13.0207 35.413 13.412C35.021 13.804 34.55 14 34 14Z" fill="white"/>
</g>
</svg>
