<svg width="133" height="32" viewBox="0 0 133 32" fill="none" xmlns="http://www.w3.org/2000/svg">
    <path
        d="M16.0591 11.3184C16.0591 11.3184 19.2887 15.5554 19.2887 17.3924C19.2887 19.1998 17.8072 20.6813 15.9998 20.6813C14.1924 20.6813 12.7109 19.1998 12.7109 17.3924C12.7109 15.5554 16.0591 11.3184 16.0591 11.3184Z"
        fill="white" />
    <path
        d="M15.9998 0.799805C7.61462 0.799805 0.799805 7.61462 0.799805 15.9998C0.799805 24.385 7.61462 31.1998 15.9998 31.1998C24.385 31.1998 31.1998 24.385 31.1998 15.9998C31.1998 7.61462 24.385 0.799805 15.9998 0.799805ZM21.1257 3.58499C24.4146 4.94795 27.0517 7.58499 28.4146 10.8739L25.3331 12.148C24.2961 9.65907 22.3406 7.67388 19.8517 6.66647L21.1257 3.58499ZM10.8739 3.58499L12.148 6.66647C9.65907 7.70351 7.67388 9.65907 6.66647 12.148L3.58499 10.8739C4.94795 7.55536 7.55536 4.94795 10.8739 3.58499ZM10.8739 28.4146C7.58499 27.0517 4.94795 24.4146 3.58499 21.1257L6.66647 19.8517C7.70351 22.3406 9.65907 24.3257 12.148 25.3331L10.8739 28.4146ZM7.67388 15.9998C7.67388 11.4072 11.4072 7.67388 15.9998 7.67388C20.5924 7.67388 24.3257 11.4072 24.3257 15.9998C24.3257 20.5924 20.5924 24.3257 15.9998 24.3257C11.4072 24.3257 7.67388 20.5924 7.67388 15.9998ZM21.1257 28.4146L19.8517 25.3331C22.3406 24.2961 24.3257 22.3406 25.3331 19.8517L28.4146 21.1257C27.0517 24.4443 24.4443 27.0517 21.1257 28.4146Z"
        fill="white" />
    <path d="M50.56 23.0099H48V8.38988H50.56V14.4499H57.04V8.38988H59.6V23.0099H57.04V16.8099H50.56V23.0099Z"
        fill="white" />
    <path
        d="M66.8842 23.2699C65.9109 23.2699 65.0442 23.0499 64.2842 22.6099C63.5376 22.1566 62.9509 21.5432 62.5242 20.7699C62.0976 19.9832 61.8842 19.0832 61.8842 18.0699C61.8842 17.0432 62.0909 16.1365 62.5042 15.3499C62.9176 14.5632 63.4976 13.9499 64.2442 13.5099C64.9909 13.0566 65.8442 12.8299 66.8042 12.8299C67.8042 12.8299 68.6642 13.0432 69.3842 13.4699C70.1042 13.8832 70.6576 14.4632 71.0442 15.2099C71.4442 15.9565 71.6442 16.8499 71.6442 17.8899V18.6299L63.1642 18.6499L63.2042 17.0899H69.2242C69.2242 16.4099 69.0042 15.8632 68.5642 15.4499C68.1376 15.0365 67.5576 14.8299 66.8242 14.8299C66.2509 14.8299 65.7642 14.9499 65.3642 15.1899C64.9776 15.4299 64.6842 15.7899 64.4842 16.2699C64.2842 16.7499 64.1842 17.3365 64.1842 18.0299C64.1842 19.0965 64.4109 19.9032 64.8642 20.4499C65.3309 20.9966 66.0176 21.2699 66.9242 21.2699C67.5909 21.2699 68.1376 21.1432 68.5642 20.8899C69.0042 20.6365 69.2909 20.2766 69.4242 19.8099H71.6842C71.4709 20.8899 70.9376 21.7365 70.0842 22.3499C69.2442 22.9632 68.1776 23.2699 66.8842 23.2699Z"
        fill="white" />
    <path d="M76.057 23.0099H73.637V8.12988H76.057V23.0099Z" fill="white" />
    <path
        d="M78.6166 27.5899V13.1299H80.8766L81.0366 14.6299C81.3299 14.0565 81.7832 13.6165 82.3966 13.3099C83.0099 12.9899 83.6832 12.8299 84.4166 12.8299C85.3632 12.8299 86.1766 13.0432 86.8566 13.4699C87.5499 13.8965 88.0899 14.4899 88.4766 15.2499C88.8632 16.0099 89.0566 16.9099 89.0566 17.9499C89.0566 18.9765 88.8766 19.8899 88.5166 20.6899C88.1566 21.4899 87.6299 22.1232 86.9366 22.5899C86.2566 23.0432 85.4232 23.2699 84.4366 23.2699C83.7032 23.2699 83.0299 23.1299 82.4166 22.8499C81.8166 22.5699 81.3632 22.1832 81.0566 21.6899V27.5899H78.6166ZM81.0766 18.0699C81.0766 18.6566 81.1899 19.1765 81.4166 19.6299C81.6432 20.0832 81.9632 20.4432 82.3766 20.7099C82.8032 20.9632 83.2966 21.0899 83.8566 21.0899C84.4299 21.0899 84.9232 20.9632 85.3366 20.7099C85.7499 20.4432 86.0632 20.0832 86.2766 19.6299C86.4899 19.1765 86.5966 18.6566 86.5966 18.0699C86.5966 17.4832 86.4899 16.9632 86.2766 16.5099C86.0632 16.0565 85.7499 15.7032 85.3366 15.4499C84.9232 15.1832 84.4299 15.0499 83.8566 15.0499C83.2966 15.0499 82.8032 15.1765 82.3766 15.4299C81.9632 15.6832 81.6432 16.0366 81.4166 16.4899C81.1899 16.9432 81.0766 17.4699 81.0766 18.0699Z"
        fill="white" />
    <path
        d="M88.6394 27.6499L89.0394 25.4899C89.2127 25.5432 89.3594 25.5765 89.4794 25.5899C89.5994 25.6032 89.7327 25.6099 89.8794 25.6099C90.306 25.6099 90.5994 25.4899 90.7594 25.2499C90.9194 25.0099 90.9994 24.6432 90.9994 24.1499V13.1299H93.4394V24.4299C93.4394 25.4699 93.146 26.3032 92.5594 26.9299C91.986 27.5566 91.166 27.8699 90.0994 27.8699C89.8727 27.8699 89.6527 27.8566 89.4394 27.8299C89.226 27.8032 88.9594 27.7432 88.6394 27.6499ZM92.2194 11.1499C91.806 11.1499 91.4527 11.0099 91.1594 10.7299C90.8794 10.4365 90.7394 10.0832 90.7394 9.66988C90.7394 9.25655 90.8794 8.90988 91.1594 8.62988C91.4527 8.34988 91.806 8.20988 92.2194 8.20988C92.6194 8.20988 92.966 8.34988 93.2594 8.62988C93.5527 8.90988 93.6994 9.25655 93.6994 9.66988C93.6994 10.0832 93.5527 10.4365 93.2594 10.7299C92.966 11.0099 92.6194 11.1499 92.2194 11.1499Z"
        fill="white" />
    <path
        d="M102.66 13.1299H105.1V23.0099H102.84L102.66 21.6899C102.367 22.1565 101.927 22.5366 101.34 22.8299C100.754 23.1232 100.127 23.2699 99.4603 23.2699C98.327 23.2699 97.4403 22.9099 96.8003 22.1899C96.1603 21.4699 95.8403 20.5099 95.8403 19.3099V13.1299H98.2803V18.4499C98.2803 19.3832 98.4603 20.0566 98.8203 20.4699C99.1803 20.8832 99.7003 21.0899 100.38 21.0899C101.154 21.0899 101.727 20.8632 102.1 20.4099C102.474 19.9432 102.66 19.2432 102.66 18.3099V13.1299Z"
        fill="white" />
    <path
        d="M107.62 23.0099V13.1299H110.06V23.0099H107.62ZM108.82 11.1499C108.407 11.1499 108.054 11.0099 107.76 10.7299C107.48 10.4365 107.34 10.0832 107.34 9.66988C107.34 9.25655 107.48 8.90988 107.76 8.62988C108.054 8.34988 108.407 8.20988 108.82 8.20988C109.234 8.20988 109.58 8.34988 109.86 8.62988C110.154 8.90988 110.3 9.25655 110.3 9.66988C110.3 10.0832 110.154 10.4365 109.86 10.7299C109.58 11.0099 109.234 11.1499 108.82 11.1499Z"
        fill="white" />
    <path
        d="M112.001 18.0499C112.001 17.0365 112.208 16.1365 112.621 15.3499C113.048 14.5632 113.628 13.9499 114.361 13.5099C115.108 13.0566 115.968 12.8299 116.941 12.8299C118.288 12.8299 119.388 13.1832 120.241 13.8899C121.108 14.5832 121.608 15.5232 121.741 16.7099H119.301C119.155 16.1499 118.881 15.7299 118.481 15.4499C118.095 15.1565 117.608 15.0099 117.021 15.0099C116.515 15.0099 116.061 15.1365 115.661 15.3899C115.275 15.6299 114.975 15.9766 114.761 16.4299C114.548 16.8832 114.441 17.4232 114.441 18.0499C114.441 18.6765 114.541 19.2165 114.741 19.6699C114.941 20.1232 115.228 20.4766 115.601 20.7299C115.988 20.9699 116.441 21.0899 116.961 21.0899C117.575 21.0899 118.081 20.9432 118.481 20.6499C118.895 20.3566 119.168 19.9366 119.301 19.3899H121.761C121.655 20.1632 121.381 20.8432 120.941 21.4299C120.515 22.0032 119.961 22.4566 119.281 22.7899C118.601 23.1099 117.828 23.2699 116.961 23.2699C115.961 23.2699 115.088 23.0565 114.341 22.6299C113.595 22.1899 113.015 21.5832 112.601 20.8099C112.201 20.0232 112.001 19.1032 112.001 18.0499Z"
        fill="white" />
    <path
        d="M127.997 23.2699C127.024 23.2699 126.158 23.0499 125.397 22.6099C124.651 22.1566 124.064 21.5432 123.637 20.7699C123.211 19.9832 122.997 19.0832 122.997 18.0699C122.997 17.0432 123.204 16.1365 123.618 15.3499C124.031 14.5632 124.611 13.9499 125.357 13.5099C126.104 13.0566 126.958 12.8299 127.918 12.8299C128.918 12.8299 129.777 13.0432 130.497 13.4699C131.217 13.8832 131.771 14.4632 132.158 15.2099C132.558 15.9565 132.757 16.8499 132.757 17.8899V18.6299L124.277 18.6499L124.317 17.0899H130.338C130.338 16.4099 130.118 15.8632 129.677 15.4499C129.251 15.0365 128.671 14.8299 127.938 14.8299C127.364 14.8299 126.878 14.9499 126.478 15.1899C126.091 15.4299 125.798 15.7899 125.598 16.2699C125.398 16.7499 125.298 17.3365 125.298 18.0299C125.298 19.0965 125.524 19.9032 125.978 20.4499C126.444 20.9966 127.131 21.2699 128.037 21.2699C128.704 21.2699 129.251 21.1432 129.677 20.8899C130.118 20.6365 130.404 20.2766 130.537 19.8099H132.798C132.584 20.8899 132.051 21.7365 131.198 22.3499C130.357 22.9632 129.291 23.2699 127.997 23.2699Z"
        fill="white" />
</svg>