<svg width="17" height="17" viewBox="0 0 17 17" fill="none" xmlns="http://www.w3.org/2000/svg">
<path fill-rule="evenodd" clip-rule="evenodd" d="M10.2005 5.116C10.2624 5.49559 10.3139 5.79614 10.3282 5.86168C11.0124 8.98189 11.8439 12.117 12.8693 15.1927C13.1566 16.0545 14.157 16.6165 15.1028 16.4475C16.0485 16.2786 16.5827 15.4423 16.2954 14.5805C15.3043 11.609 14.5022 8.57872 13.8406 5.56338C13.7901 5.33348 13.602 3.38409 13.2913 2.4875C13.0094 1.67568 12.4542 1.22226 12.1067 1.04532C11.5548 0.764335 10.5874 0.61698 9.55495 1.19239C8.20712 1.94317 5.92366 4.42245 5.54624 4.83446C4.85332 5.59304 4.20209 6.41624 3.58314 7.22207C2.40946 8.75092 1.46202 10.3958 0.544138 12.0662C0.12848 12.8218 0.519959 13.7979 1.41709 14.2459C2.31363 14.6928 3.37901 14.4428 3.79355 13.6876C4.64521 12.1382 5.51693 10.6084 6.60573 9.19051C7.17737 8.44709 7.77673 7.68549 8.41601 6.9854C8.60842 6.77576 9.37757 5.90066 10.2005 5.116Z" fill="white"/>
</svg>
