<svg width="36" height="30" viewBox="0 0 36 30" fill="none" xmlns="http://www.w3.org/2000/svg">
<path d="M11.792 9.00001L10.417 6.04201L7.458 4.66701L10.417 3.29201L11.792 0.333008L13.167 3.29201L16.125 4.66701L13.167 6.04201L11.792 9.00001ZM22.833 14.042L21.708 11.625L19.333 10.5L21.708 9.37501L22.833 7.00001L23.958 9.37501L26.375 10.5L23.958 11.625L22.833 14.042ZM4.042 17.375L2.917 14.958L0.5 13.833L2.917 12.708L4.042 10.333L5.167 12.708L7.542 13.833L5.167 14.958L4.042 17.375ZM5 29.583L3.417 28L15.333 16.083L22 22.792L34.042 9.16701L35.5 10.583L22.042 25.917L15.333 19.25L5 29.583Z" fill="white"/>
</svg>
