<svg width="22" height="22" viewBox="0 0 22 22" fill="none" xmlns="http://www.w3.org/2000/svg">
<path d="M21.775 16.9252L20 15.1502V10.0002H14.85L10.85 6.0002H20V4.0002H8.85003L6.85002 2.0002H20C20.55 2.0002 21.021 2.1962 21.413 2.5882C21.8044 2.97953 22 3.4502 22 4.0002V16.0002C22 16.1669 21.9834 16.3295 21.95 16.4882C21.9167 16.6462 21.8584 16.7919 21.775 16.9252ZM9.15002 10.0002H4.00002V16.0002H15.15L9.15002 10.0002ZM20.45 21.3002L17.15 18.0002H4.00002C3.45002 18.0002 2.97936 17.8045 2.58802 17.4132C2.19602 17.0212 2.00002 16.5502 2.00002 16.0002V4.0002C2.00002 3.4502 2.19602 2.97953 2.58802 2.5882C2.97936 2.1962 3.45002 2.0002 4.00002 2.0002L6.00002 4.0002H4.00002V6.0002H5.15002L0.650024 1.5002L2.07502 0.0751953L21.875 19.8752L20.45 21.3002Z" fill="#667085"/>
</svg>
