<svg width="20" height="16" viewBox="0 0 20 16" fill="none" xmlns="http://www.w3.org/2000/svg">
<path id="Icon" d="M1.66663 3.8335L8.47073 8.59636C9.0217 8.98205 9.29719 9.17489 9.59685 9.24959C9.86154 9.31557 10.1384 9.31557 10.4031 9.24959C10.7027 9.17489 10.9782 8.98205 11.5292 8.59637L18.3333 3.8335M5.66663 14.6668H14.3333C15.7334 14.6668 16.4335 14.6668 16.9683 14.3943C17.4387 14.1547 17.8211 13.7722 18.0608 13.3018C18.3333 12.767 18.3333 12.067 18.3333 10.6668V5.3335C18.3333 3.93336 18.3333 3.2333 18.0608 2.69852C17.8211 2.22811 17.4387 1.84566 16.9683 1.60598C16.4335 1.3335 15.7334 1.3335 14.3333 1.3335H5.66663C4.26649 1.3335 3.56643 1.3335 3.03165 1.60598C2.56124 1.84566 2.17879 2.22811 1.93911 2.69852C1.66663 3.2333 1.66663 3.93336 1.66663 5.3335V10.6668C1.66663 12.067 1.66663 12.767 1.93911 13.3018C2.17879 13.7722 2.56124 14.1547 3.03165 14.3943C3.56643 14.6668 4.26649 14.6668 5.66663 14.6668Z" stroke="white" stroke-opacity="0.56" stroke-width="1.66667" stroke-linecap="round" stroke-linejoin="round"/>
</svg>
