<svg width="30" height="30" viewBox="0 0 30 30" fill="none" xmlns="http://www.w3.org/2000/svg">
<path d="M3.25001 29.1666C2.58334 29.1666 2.0139 28.9305 1.54168 28.4583C1.06945 27.986 0.833344 27.4166 0.833344 26.7499V3.24992C0.833344 2.58325 1.06945 2.01381 1.54168 1.54159C2.0139 1.06936 2.58334 0.833252 3.25001 0.833252H21.375L29.1667 8.62492V26.7499C29.1667 27.4166 28.9306 27.986 28.4583 28.4583C27.9861 28.9305 27.4167 29.1666 26.75 29.1666H3.25001ZM3.25001 27.2916H26.75C26.9167 27.2916 27.0486 27.243 27.1458 27.1458C27.2431 27.0485 27.2917 26.9166 27.2917 26.7499V9.74992H20.2917V2.70825H3.25001C3.08334 2.70825 2.9514 2.75686 2.85418 2.85409C2.75695 2.95131 2.70834 3.08325 2.70834 3.24992V26.7499C2.70834 26.9166 2.75695 27.0485 2.85418 27.1458C2.9514 27.243 3.08334 27.2916 3.25001 27.2916ZM7.04168 22.1666H22.9583V20.2916H7.04168V22.1666ZM7.04168 9.70825H15V7.83325H7.04168V9.70825ZM7.04168 15.9583H22.9583V14.0416H7.04168V15.9583Z" fill="#EEEEEE"/>
</svg>
