<svg width="14" height="14" viewBox="0 0 14 14" fill="none" xmlns="http://www.w3.org/2000/svg">
<path d="M6.53834 0.509868C6.70914 0.0992216 7.29086 0.0992202 7.46166 0.509866L8.99874 4.20546C9.07075 4.37858 9.23355 4.49686 9.42045 4.51185L13.4102 4.8317C13.8535 4.86724 14.0332 5.42049 13.6955 5.70983L10.6557 8.31368C10.5133 8.43566 10.4512 8.62705 10.4947 8.80943L11.4234 12.7027C11.5265 13.1353 11.0559 13.4772 10.6764 13.2454L7.26063 11.1591C7.10062 11.0614 6.89938 11.0614 6.73937 11.1591L3.32363 13.2454C2.94408 13.4772 2.47345 13.1353 2.57665 12.7027L3.50534 8.80943C3.54884 8.62705 3.48665 8.43566 3.34426 8.31368L0.304527 5.70983C-0.0332418 5.4205 0.14652 4.86724 0.589847 4.8317L4.57955 4.51185C4.76645 4.49686 4.92925 4.37858 5.00126 4.20546L6.53834 0.509868Z" fill="#F79009"/>
</svg>
