<svg width="37" height="36" viewBox="0 0 37 36" fill="none" xmlns="http://www.w3.org/2000/svg">
<path d="M33.792 16.125L32.958 14.208L31.042 13.333L32.958 12.458L33.792 10.542L34.667 12.458L36.583 13.333L34.667 14.208L33.792 16.125ZM28.667 8.958L27.333 6.125L24.5 4.792L27.333 3.458L28.667 0.625L30 3.458L32.833 4.792L30 6.125L28.667 8.958ZM12 35.958C11.1387 35.958 10.4027 35.6663 9.79201 35.083C9.18067 34.4997 8.84734 33.7777 8.79201 32.917H15.208C15.1527 33.7777 14.8193 34.4997 14.208 35.083C13.5973 35.6663 12.8613 35.958 12 35.958ZM5.70801 30.167V28.083H18.292V30.167H5.70801ZM5.87501 25.333C4.15301 24.2223 2.79867 22.8267 1.81201 21.146C0.826008 19.4653 0.333008 17.5833 0.333008 15.5C0.333008 12.278 1.47901 9.528 3.77101 7.25C6.06234 4.972 8.80534 3.833 12 3.833C15.1947 3.833 17.9377 4.972 20.229 7.25C22.521 9.528 23.667 12.278 23.667 15.5C23.667 17.5833 23.174 19.4653 22.188 21.146C21.2013 22.8267 19.847 24.2223 18.125 25.333H5.87501ZM6.58301 23.25H17.458C18.736 22.3613 19.743 21.2363 20.479 19.875C21.215 18.5137 21.583 17.0553 21.583 15.5C21.583 12.8333 20.6457 10.5693 18.771 8.708C16.8957 6.84733 14.6387 5.917 12 5.917C9.36134 5.917 7.10434 6.84733 5.22901 8.708C3.35434 10.5693 2.41701 12.8333 2.41701 15.5C2.41701 17.0553 2.78501 18.5137 3.52101 19.875C4.25701 21.2363 5.27767 22.3613 6.58301 23.25Z" fill="white"/>
</svg>
