<svg xmlns="http://www.w3.org/2000/svg" width="14" height="16" fill="none" viewBox="0 0 14 16"><path fill="#fff" d="M0.333435 9.66667C0.333435 10.8889 0.632046 12.0033 1.22927 13.01C1.82649 14.0172 2.61121 14.8125 3.58344 15.3958C3.34732 15.0625 3.16344 14.6978 3.03177 14.3017C2.89955 13.9061 2.83344 13.4861 2.83344 13.0417C2.83344 12.4861 2.9376 11.9653 3.14594 11.4792C3.35427 10.9931 3.65982 10.5486 4.0626 10.1458L7.0001 7.25L9.95844 10.1458C10.3473 10.5347 10.6459 10.9758 10.8543 11.4692C11.0626 11.9619 11.1668 12.4861 11.1668 13.0417C11.1668 13.4861 11.1009 13.9061 10.9693 14.3017C10.837 14.6978 10.6529 15.0625 10.4168 15.3958C11.389 14.8125 12.1737 14.0172 12.7709 13.01C13.3682 12.0033 13.6668 10.8889 13.6668 9.66667C13.6668 8.43056 13.3612 7.295 12.7501 6.26C12.139 5.22555 11.3334 4.41667 10.3334 3.83333L9.95844 4.29167C9.77788 4.51389 9.5801 4.67361 9.3651 4.77083C9.14955 4.86806 8.92371 4.91667 8.6876 4.91667C8.25705 4.91667 7.86816 4.76722 7.52094 4.46833C7.17371 4.17 7.0001 3.76389 7.0001 3.25V0.5L5.95844 1.11417C5.26399 1.52417 4.5001 2.11806 3.66677 2.89583C2.83344 3.67361 2.06955 4.63194 1.3751 5.77083C0.680657 6.90972 0.333435 8.20833 0.333435 9.66667ZM7.0001 9.58333L5.22927 11.3125C4.99316 11.5486 4.8126 11.8161 4.6876 12.115C4.5626 12.4133 4.5001 12.7222 4.5001 13.0417C4.5001 13.7222 4.74316 14.3019 5.22927 14.7808C5.71538 15.2603 6.30566 15.5 7.0001 15.5C7.69455 15.5 8.28482 15.2603 8.77094 14.7808C9.25705 14.3019 9.5001 13.7222 9.5001 13.0417C9.5001 12.7083 9.4376 12.3958 9.3126 12.1042C9.1876 11.8125 9.00705 11.5486 8.77094 11.3125L7.0001 9.58333Z"/></svg>